<svg xmlns="http://www.w3.org/2000/svg" width="512" height="512" viewBox="0 0 512 512">
  <defs>
    <linearGradient id="background" x1="64" y1="40" x2="448" y2="472" gradientUnits="userSpaceOnUse">
      <stop stop-color="#8B70FF"/>
      <stop offset="1" stop-color="#432BAA"/>
    </linearGradient>
  </defs>
  <rect width="512" height="512" rx="116" fill="#080B13"/>
  <rect x="48" y="48" width="416" height="416" rx="94" fill="url(#background)"/>
  <path d="M143 176c0-30 24-54 54-54h145c15 0 27 12 27 27s-12 27-27 27H201c-4 0-7 3-7 7s3 7 7 7h83c47 0 85 38 85 85s-38 85-85 85H170c-15 0-27-12-27-27s12-27 27-27h110c19 0 35-16 35-35s-16-35-35-35h-83c-30 0-54-24-54-54Z" fill="#F7F8FF"/>
  <circle cx="369" cy="349" r="28" fill="#42D7DF"/>
</svg>

